<svg xmlns="http://www.w3.org/2000/svg" width="512" height="512" viewBox="0 0 512 512">
  <defs>
    <linearGradient id="bg" x1="0%" y1="0%" x2="100%" y2="100%">
      <stop offset="0%" style="stop-color:#8b5cf6"/>
      <stop offset="100%" style="stop-color:#7c3aed"/>
    </linearGradient>
  </defs>
  <rect width="512" height="512" rx="108" fill="url(#bg)"/>
  <g transform="translate(256,256)">
    <path d="M-140-70 C-140-92-122-110-100-110 L-40-110 C-40-110-30-90-30-70 C-30-50-40-30-40-30 L40-30 C40-30 30-50 30-70 C30-90 40-110 40-110 L100-110 C122-110 140-92 140-70 L140 70 C140 92 122 110 100 110 L40 110 C40 110 30 90 30 70 C30 50 40 30 40 30 L-40 30 C-40 30-30 50-30 70 C-30 90-40 110-40 110 L-100 110 C-122 110-140 92-140 70 Z" 
      fill="none" stroke="white" stroke-width="24" stroke-linejoin="round" stroke-linecap="round"/>
    <line x1="-40" y1="-30" x2="-40" y2="30" stroke="white" stroke-width="16" stroke-linecap="round" stroke-dasharray="8 16"/>
    <line x1="40" y1="-30" x2="40" y2="30" stroke="white" stroke-width="16" stroke-linecap="round" stroke-dasharray="8 16"/>
  </g>
</svg>
